<?xml version="1.0" standalone="no"?>
<!DOCTYPE svg PUBLIC "-//W3C//DTD SVG 20010904//EN"
 "http://www.w3.org/TR/2001/REC-SVG-20010904/DTD/svg10.dtd">
<svg version="1.0" xmlns="http://www.w3.org/2000/svg"
 width="512.000000pt" height="512.000000pt" viewBox="0 0 512.000000 512.000000"
 preserveAspectRatio="xMidYMid meet">
<metadata>
Created by potrace 1.11, written by Peter Selinger 2001-2013
</metadata>
<g transform="translate(0.000000,512.000000) scale(0.100000,-0.100000)"
fill="#000000" stroke="none">
<path d="M2938 5115 c-2 -2 -21 -5 -43 -9 -181 -26 -324 -84 -755 -303 -168
-86 -352 -180 -410 -211 -58 -30 -127 -66 -155 -80 -136 -70 -280 -163 -380
-246 -201 -166 -299 -361 -297 -589 0 -38 4 -82 7 -98 4 -17 8 -40 10 -52 4
-42 66 -211 97 -270 18 -33 42 -66 55 -74 28 -18 28 -27 4 -61 -22 -32 -34
-81 -32 -136 1 -63 11 -179 16 -196 2 -8 7 -35 10 -60 36 -253 197 -566 402
-779 18 -19 33 -38 33 -43 0 -9 -52 -148 -75 -203 -7 -16 -39 -97 -70 -180
-81 -213 -273 -713 -290 -755 -74 -179 -184 -486 -188 -522 -10 -94 59 -201
148 -231 53 -19 139 -16 180 5 37 20 82 64 100 98 7 14 86 214 175 445 89 231
164 426 167 432 4 10 82 13 344 13 l338 0 3 -302 c3 -333 3 -331 69 -396 91
-89 231 -89 320 1 33 32 57 74 63 109 3 13 5 150 5 306 l1 282 341 -2 340 -3
110 -285 c61 -157 114 -296 119 -310 22 -63 100 -262 116 -292 48 -93 167
-138 272 -104 56 19 116 74 138 126 22 51 21 154 -1 190 -3 5 -17 40 -31 77
-64 172 -302 791 -314 818 -5 11 -32 81 -60 155 -28 74 -62 162 -75 195 -57
147 -125 327 -125 333 0 4 17 25 38 47 205 219 356 514 398 780 3 22 8 43 10
46 4 7 17 181 16 214 -4 97 -40 162 -117 210 l-48 30 -1194 0 c-656 0 -1193 2
-1193 5 0 5 130 73 565 295 149 76 349 178 445 228 373 191 545 279 805 412
310 159 336 174 362 212 59 85 61 165 8 267 -123 236 -301 391 -510 443 -51
13 -257 27 -267 18z m-969 -3509 c38 -20 246 -83 301 -91 25 -4 48 -9 52 -11
5 -3 8 -63 8 -133 l0 -129 -295 0 -294 0 23 62 c135 356 126 336 152 326 13
-5 37 -16 53 -24z m1306 -91 c26 -66 60 -155 75 -197 l29 -76 -295 0 -294 0 0
129 c0 70 3 130 8 132 4 3 25 8 47 11 84 14 247 64 330 102 27 13 50 22 51 21
1 -1 23 -56 49 -122z"/>
</g>
</svg>
